<?xml version="1.0" encoding="UTF-8" standalone="no"?>
<!-- Created with Inkscape (http://www.inkscape.org/) -->

<svg
   xmlns:dc="http://purl.org/dc/elements/1.1/"
   xmlns:cc="http://creativecommons.org/ns#"
   xmlns:rdf="http://www.w3.org/1999/02/22-rdf-syntax-ns#"
   xmlns:svg="http://www.w3.org/2000/svg"
   xmlns="http://www.w3.org/2000/svg"
   xmlns:xlink="http://www.w3.org/1999/xlink"
   xmlns:sodipodi="http://sodipodi.sourceforge.net/DTD/sodipodi-0.dtd"
   xmlns:inkscape="http://www.inkscape.org/namespaces/inkscape"
   width="340.5"
   height="233.86078"
   id="svg2"
   version="1.1"
   inkscape:version="0.47pre4 r22446"
   sodipodi:docname="velocimetro.svg">
  <defs
     id="defs4">
    <linearGradient
       inkscape:collect="always"
       id="linearGradient4324">
      <stop
         style="stop-color:#ffffff;stop-opacity:0.90421456"
         offset="0"
         id="stop4326" />
      <stop
         style="stop-color:#ffffff;stop-opacity:0;"
         offset="1"
         id="stop4328" />
    </linearGradient>
    <linearGradient
       inkscape:collect="always"
       id="linearGradient4278">
      <stop
         style="stop-color:#888a85;stop-opacity:1;"
         offset="0"
         id="stop4280" />
      <stop
         style="stop-color:#000000;stop-opacity:1"
         offset="1"
         id="stop4282" />
    </linearGradient>
    <linearGradient
       inkscape:collect="always"
       id="linearGradient3753">
      <stop
         style="stop-color:#2e3436;stop-opacity:1"
         offset="0"
         id="stop3755" />
      <stop
         style="stop-color:#555753;stop-opacity:1"
         offset="1"
         id="stop3757" />
    </linearGradient>
    <linearGradient
       inkscape:collect="always"
       id="linearGradient3719">
      <stop
         style="stop-color:#2e3436;stop-opacity:0.75095785"
         offset="0"
         id="stop3721" />
      <stop
         style="stop-color:#2e3436;stop-opacity:0;"
         offset="1"
         id="stop3723" />
    </linearGradient>
    <inkscape:perspective
       sodipodi:type="inkscape:persp3d"
       inkscape:vp_x="0 : 526.18109 : 1"
       inkscape:vp_y="0 : 1000 : 0"
       inkscape:vp_z="744.09448 : 526.18109 : 1"
       inkscape:persp3d-origin="372.04724 : 350.78739 : 1"
       id="perspective10" />
    <inkscape:perspective
       id="perspective2904"
       inkscape:persp3d-origin="0.5 : 0.33333333 : 1"
       inkscape:vp_z="1 : 0.5 : 1"
       inkscape:vp_y="0 : 1000 : 0"
       inkscape:vp_x="0 : 0.5 : 1"
       sodipodi:type="inkscape:persp3d" />
    <linearGradient
       inkscape:collect="always"
       xlink:href="#linearGradient3753"
       id="linearGradient3749"
       gradientUnits="userSpaceOnUse"
       x1="276.98044"
       y1="463.79074"
       x2="360"
       y2="304.04965"
       gradientTransform="matrix(0.87328823,0,0,0.87328823,46.50456,57.80846)" />
    <linearGradient
       inkscape:collect="always"
       xlink:href="#linearGradient3719"
       id="linearGradient4030"
       gradientUnits="userSpaceOnUse"
       x1="373.78125"
       y1="983.84381"
       x2="335.5625"
       y2="706.15625"
       gradientTransform="translate(12,-403)" />
    <linearGradient
       inkscape:collect="always"
       xlink:href="#linearGradient4278"
       id="linearGradient4284"
       x1="279"
       y1="293.56088"
       x2="488"
       y2="575.36218"
       gradientUnits="userSpaceOnUse" />
    <linearGradient
       inkscape:collect="always"
       xlink:href="#linearGradient4324"
       id="linearGradient4330"
       x1="345.06812"
       y1="114.73859"
       x2="358.65076"
       y2="434.35086"
       gradientUnits="userSpaceOnUse" />
    <filter
       inkscape:collect="always"
       id="filter4336"
       x="-0.13133183"
       width="1.2626637"
       y="-0.13130967"
       height="1.2626194"
       color-interpolation-filters="sRGB">
      <feGaussianBlur
         inkscape:collect="always"
         stdDeviation="10.133756"
         id="feGaussianBlur4338" />
    </filter>
  </defs>
  <sodipodi:namedview
     id="base"
     pagecolor="#ffffff"
     bordercolor="#666666"
     borderopacity="1.0"
     inkscape:pageopacity="0.0"
     inkscape:pageshadow="2"
     inkscape:zoom="2"
     inkscape:cx="195.20151"
     inkscape:cy="140.54763"
     inkscape:document-units="px"
     inkscape:current-layer="layer1"
     showgrid="false"
     showguides="false"
     inkscape:guide-bbox="true"
     inkscape:window-width="1280"
     inkscape:window-height="949"
     inkscape:window-x="0"
     inkscape:window-y="24"
     inkscape:window-maximized="1">
    <sodipodi:guide
       orientation="1,0"
       position="170.25,179.33383"
       id="guide4223" />
    <sodipodi:guide
       orientation="0,1"
       position="242.25,51.333831"
       id="guide4225" />
  </sodipodi:namedview>
  <metadata
     id="metadata7">
    <rdf:RDF>
      <cc:Work
         rdf:about="">
        <dc:format>image/svg+xml</dc:format>
        <dc:type
           rdf:resource="http://purl.org/dc/dcmitype/StillImage" />
      </cc:Work>
    </rdf:RDF>
  </metadata>
  <g
     inkscape:label="Capa 1"
     inkscape:groupmode="layer"
     id="layer1"
     transform="translate(-189.75,-278.83524)">
    <path
       style="color:#000000;fill:#382509;fill-opacity:1;fill-rule:evenodd;stroke:#000000;stroke-width:0.91251713px;stroke-linecap:butt;stroke-linejoin:miter;stroke-miterlimit:4;stroke-opacity:1;stroke-dasharray:none;stroke-dashoffset:0;marker:none;visibility:visible;display:inline;overflow:visible;enable-background:accumulate"
       d="m 360,296.9375 c -92.15439,0 -166.875,74.68936 -166.875,166.84375 0,8.35755 0.62632,16.56593 1.8125,24.59375 l 330.125,0 c 1.18618,-8.02782 1.8125,-16.2362 1.8125,-24.59375 C 526.875,371.62686 452.15439,296.9375 360,296.9375 z"
       id="path2816" />
    <path
       style="font-size:medium;font-style:normal;font-variant:normal;font-weight:normal;font-stretch:normal;text-indent:0;text-align:start;text-decoration:none;line-height:normal;letter-spacing:normal;word-spacing:normal;text-transform:none;direction:ltr;block-progression:tb;writing-mode:lr-tb;text-anchor:start;color:#000000;fill:url(#linearGradient4284);fill-opacity:1;fill-rule:evenodd;stroke:none;stroke-width:1;marker:none;visibility:visible;display:inline;overflow:visible;enable-background:accumulate;font-family:Bitstream Vera Sans;-inkscape-font-specification:Bitstream Vera Sans"
       d="m 360,293.5625 c -93.97756,0 -170.25,76.24119 -170.25,170.21875 0,8.35343 0.61713,16.56123 1.78125,24.59375 l 7.0625,0 c -1.2103,-8.02183 -1.875,-16.23303 -1.875,-24.59375 C 196.71875,373.56453 269.78328,300.5 360,300.5 c 90.21672,0 163.28125,73.06453 163.28125,163.28125 0,8.36072 -0.6647,16.57192 -1.875,24.59375 l 7.0625,0 C 529.63287,480.34248 530.25,472.13468 530.25,463.78125 530.25,369.80369 453.97756,293.5625 360,293.5625 z"
       id="path3688" />
    <path
       style="color:#000000;fill:url(#linearGradient3749);fill-opacity:1;fill-rule:evenodd;stroke:#000000;stroke-width:0.87328821px;stroke-linecap:butt;stroke-linejoin:miter;stroke-miterlimit:4;stroke-opacity:1;stroke-dasharray:none;stroke-dashoffset:0;marker:none;visibility:visible;display:inline;overflow:visible;enable-background:accumulate"
       d="m 360.875,303.15625 c -88.19269,0 -159.6875,71.49481 -159.6875,159.6875 0,8.69548 0.72499,17.21295 2.0625,25.53125 l 315.3125,0 c 1.33697,-8.31669 2,-16.83754 2,-25.53125 0,-88.19269 -71.49481,-159.6875 -159.6875,-159.6875 z"
       id="path3694" />
    <path
       style="color:#000000;fill:url(#linearGradient4030);fill-opacity:1;fill-rule:evenodd;stroke:none;stroke-width:0.87328821px;marker:none;visibility:visible;display:inline;overflow:visible;enable-background:accumulate"
       d="m 452.5625,353.15625 c -88.08146,0 -162.94605,56.48989 -190.375,135.21875 l 256.34375,0 c 1.336,-8.31375 2.03125,-16.8408 2.03125,-25.53125 0,-41.68074 -15.97143,-79.62565 -42.125,-108.0625 -8.46744,-1.08446 -17.11266,-1.625 -25.875,-1.625 z"
       id="path3710" />
    <g
       transform="matrix(1.1536004,0,0,1.1536004,2.4853221,192.81959)"
       style="font-size:25px;font-style:normal;font-weight:normal;text-align:center;line-height:125%;letter-spacing:0px;word-spacing:0px;text-anchor:middle;fill:#ffffff;fill-opacity:1;stroke:none;font-family:Folio;-inkscape-font-specification:Folio"
       id="flowRoot3759">
      <path
         d="m 292.07598,129.36121 1.4,-1.675 0.05,0 0,12.45 2.95,0 0,-16.75 -2.4,0 -3.625,4.3 1.625,1.675"
         style="fill:#ffffff;font-family:Folio;-inkscape-font-specification:Folio"
         id="path4375" />
      <path
         d="m 305.54199,128.66121 c 0,-1.75 0.875,-3.225 2.75,-3.225 1.6,0 2.675,1.25 2.675,2.65 0,4.55 -7.925,5.50001 -8.375,12.05 l 11.225,0 0,-2.6 -7.175,0 c 1.6,-2.54999 7.625,-5 7.625,-9.4 0,-3.39999 -2.625,-5.2 -5.925,-5.2 -3.24999,0 -5.65,1.67501 -5.85,5.725 l 3.05,0"
         style="fill:#ffffff;font-family:Folio;-inkscape-font-specification:Folio"
         id="path4377" />
      <path
         d="m 322.40801,125.43621 c 2,0 2.925,1.60001 2.925,6.325 0,4.725 -0.925,6.325 -2.925,6.325 -2,0 -2.925,-1.6 -2.925,-6.325 0,-4.72499 0.925,-6.325 2.925,-6.325 m -6.225,6.325 c 0,6.125 2.575,8.825 6.225,8.825 3.64999,0 6.225,-2.7 6.225,-8.825 0,-6.12499 -2.57501,-8.825 -6.225,-8.825 -3.65,0 -6.225,2.70001 -6.225,8.825"
         style="fill:#ffffff;font-family:Folio;-inkscape-font-specification:Folio"
         id="path4379" />
    </g>
    <g
       transform="matrix(1.1536004,0,0,1.1536004,-54.111012,207.40859)"
       style="font-size:25px;font-style:normal;font-weight:normal;text-align:center;line-height:125%;letter-spacing:0px;word-spacing:0px;text-anchor:middle;fill:#ffffff;fill-opacity:1;stroke:none;font-family:Folio;-inkscape-font-specification:Folio"
       id="flowRoot3787">
      <path
         d="m 301.53398,125.43621 c 1.425,0 2.625,0.925 2.625,2.425 0,1.55 -1.25,2.375 -2.625,2.375 -1.42499,0 -2.625,-0.825 -2.625,-2.375 0,-1.5 1.15001,-2.425 2.575,-2.425 l 0.05,0 m 0,-2.5 c -2.62499,0 -5.675,1.62501 -5.675,4.45 0,1.95 0.75001,3.425 2.75,3.875 l 0,0.05 c -1.97499,0.425 -3.125,1.975 -3.125,4.025 0,3.25 2.45001,5.25 6.05,5.25 3.6,0 6.05,-2 6.05,-5.25 0,-2.05 -1.15,-3.6 -3.125,-4.025 l 0,-0.05 c 2,-0.45 2.75,-1.925 2.75,-3.875 0,-2.82499 -3.05,-4.45 -5.675,-4.45 m 0,9.5 c 1.5,0 2.85,0.85 2.85,2.7 0,2 -1.15,2.95 -2.85,2.95 -1.74999,0 -2.85,-0.95 -2.85,-2.95 0,-1.85 1.30001,-2.7 2.8,-2.7 l 0.05,0"
         style="fill:#ffffff;font-family:Folio;-inkscape-font-specification:Folio"
         id="path4382" />
      <path
         d="m 315.45,125.43621 c 2,0 2.925,1.60001 2.925,6.325 0,4.725 -0.925,6.325 -2.925,6.325 -2,0 -2.925,-1.6 -2.925,-6.325 0,-4.72499 0.925,-6.325 2.925,-6.325 m -6.225,6.325 c 0,6.125 2.575,8.825 6.225,8.825 3.65,0 6.225,-2.7 6.225,-8.825 0,-6.12499 -2.575,-8.825 -6.225,-8.825 -3.65,0 -6.225,2.70001 -6.225,8.825"
         style="fill:#ffffff;font-family:Folio;-inkscape-font-specification:Folio"
         id="path4384" />
    </g>
    <g
       transform="matrix(1.1536004,0,0,1.1536004,-88.581053,246.49118)"
       style="font-size:25px;font-style:normal;font-weight:normal;text-align:center;line-height:125%;letter-spacing:0px;word-spacing:0px;text-anchor:middle;fill:#ffffff;fill-opacity:1;stroke:none;font-family:Folio;-inkscape-font-specification:Folio"
       id="flowRoot3805">
      <path
         d="m 305.85898,123.38621 -3.175,0 -7.475,9.45 0,2.675 7.7,0 0,4.625 2.95,0 0,-4.575 2.125,0 0,-2.55 -2.125,0 0,-9.625 m -2.95,9.625 -4.75,0 4.7,-6.225 0.05,0 0,6.225"
         style="fill:#ffffff;font-family:Folio;-inkscape-font-specification:Folio"
         id="path4387" />
      <path
         d="m 315.45,125.43621 c 2,0 2.925,1.60001 2.925,6.325 0,4.725 -0.925,6.325 -2.925,6.325 -2,0 -2.925,-1.6 -2.925,-6.325 0,-4.72499 0.925,-6.325 2.925,-6.325 m -6.225,6.325 c 0,6.125 2.575,8.825 6.225,8.825 3.65,0 6.225,-2.7 6.225,-8.825 0,-6.12499 -2.575,-8.825 -6.225,-8.825 -3.65,0 -6.225,2.70001 -6.225,8.825"
         style="fill:#ffffff;font-family:Folio;-inkscape-font-specification:Folio"
         id="path4389" />
    </g>
    <g
       transform="matrix(1.1536004,0,0,1.1536004,55.487602,207.10182)"
       style="font-size:25px;font-style:normal;font-weight:normal;text-align:center;line-height:125%;letter-spacing:0px;word-spacing:0px;text-anchor:middle;fill:#ffffff;fill-opacity:1;stroke:none;font-family:Folio;-inkscape-font-specification:Folio"
       id="flowRoot3823">
      <path
         d="m 292.07598,129.36121 1.4,-1.675 0.05,0 0,12.45 2.95,0 0,-16.75 -2.4,0 -3.625,4.3 1.625,1.675"
         style="fill:#ffffff;font-family:Folio;-inkscape-font-specification:Folio"
         id="path4368" />
      <path
         d="m 305.96699,134.76121 c 0,-1.9 0.875,-3.575 2.825,-3.575 1.95,0 2.825,1.675 2.825,3.575 0,1.825 -0.875,3.325 -2.825,3.325 -1.95,0 -2.825,-1.5 -2.825,-3.325 m 8.5,-7.3 c -0.6,-2.94999 -2.4,-4.525 -5.425,-4.525 -5.27499,0 -6.475,5.15001 -6.475,9.475 0,7.275 4.225,8.175 6.325,8.175 3.35,0 5.875,-2.55 5.875,-5.9 0,-4.49999 -3.075,-5.75 -5.3,-5.75 -1.675,0 -2.8,0.6 -3.85,2.5 l -0.05,0 c -0.125,-1.95 0.50001,-6 3.575,-6 1.375,0 1.9,0.8 2.25,2.025 l 3.075,0"
         style="fill:#ffffff;font-family:Folio;-inkscape-font-specification:Folio"
         id="path4370" />
      <path
         d="m 322.40801,125.43621 c 2,0 2.925,1.60001 2.925,6.325 0,4.725 -0.925,6.325 -2.925,6.325 -2,0 -2.925,-1.6 -2.925,-6.325 0,-4.72499 0.925,-6.325 2.925,-6.325 m -6.225,6.325 c 0,6.125 2.575,8.825 6.225,8.825 3.64999,0 6.225,-2.7 6.225,-8.825 0,-6.12499 -2.57501,-8.825 -6.225,-8.825 -3.65,0 -6.225,2.70001 -6.225,8.825"
         style="fill:#ffffff;font-family:Folio;-inkscape-font-specification:Folio"
         id="path4372" />
    </g>
    <g
       transform="matrix(1.1536004,0,0,1.1536004,95.236862,245.35581)"
       style="font-size:25px;font-style:normal;font-weight:normal;text-align:center;line-height:125%;letter-spacing:0px;word-spacing:0px;text-anchor:middle;fill:#ffffff;fill-opacity:1;stroke:none;font-family:Folio;-inkscape-font-specification:Folio"
       id="flowRoot3841">
      <path
         d="m 291.62598,128.66121 c 0,-1.75 0.875,-3.225 2.75,-3.225 1.59999,0 2.675,1.25 2.675,2.65 0,4.55 -7.925,5.50001 -8.375,12.05 l 11.225,0 0,-2.6 -7.175,0 c 1.59999,-2.54999 7.625,-5 7.625,-9.4 0,-3.39999 -2.62501,-5.2 -5.925,-5.2 -3.25,0 -5.65,1.67501 -5.85,5.725 l 3.05,0"
         style="fill:#ffffff;font-family:Folio;-inkscape-font-specification:Folio"
         id="path4392" />
      <path
         d="m 308.49199,125.43621 c 2,0 2.925,1.60001 2.925,6.325 0,4.725 -0.925,6.325 -2.925,6.325 -2,0 -2.925,-1.6 -2.925,-6.325 0,-4.72499 0.925,-6.325 2.925,-6.325 m -6.225,6.325 c 0,6.125 2.57501,8.825 6.225,8.825 3.65,0 6.225,-2.7 6.225,-8.825 0,-6.12499 -2.575,-8.825 -6.225,-8.825 -3.64999,0 -6.225,2.70001 -6.225,8.825"
         style="fill:#ffffff;font-family:Folio;-inkscape-font-specification:Folio"
         id="path4394" />
      <path
         d="m 322.40801,125.43621 c 2,0 2.925,1.60001 2.925,6.325 0,4.725 -0.925,6.325 -2.925,6.325 -2,0 -2.925,-1.6 -2.925,-6.325 0,-4.72499 0.925,-6.325 2.925,-6.325 m -6.225,6.325 c 0,6.125 2.575,8.825 6.225,8.825 3.64999,0 6.225,-2.7 6.225,-8.825 0,-6.12499 -2.57501,-8.825 -6.225,-8.825 -3.65,0 -6.225,2.70001 -6.225,8.825"
         style="fill:#ffffff;font-family:Folio;-inkscape-font-specification:Folio"
         id="path4396" />
    </g>
    <g
       id="g4061">
      <rect
         ry="1.1708659"
         y="306.12994"
         x="358.38834"
         height="20.19239"
         width="5"
         id="rect4057"
         style="fill:#ffffff;fill-opacity:1;stroke:none" />
    </g>
    <g
       id="g4065"
       transform="matrix(0.8660254,0.5,-0.5,0.8660254,279.46294,-118.51761)">
      <rect
         style="fill:#ffffff;fill-opacity:1;stroke:none"
         id="rect4067"
         width="5"
         height="20.19239"
         x="358.38834"
         y="306.12994"
         ry="1.1708659" />
    </g>
    <g
       transform="matrix(0.5,0.8660254,-0.8660254,0.5,580.74375,-81.425399)"
       id="g4071">
      <rect
         ry="1.1708659"
         y="306.12994"
         x="358.38834"
         height="20.19239"
         width="5"
         id="rect4073"
         style="fill:#ffffff;fill-opacity:1;stroke:none" />
    </g>
    <g
       id="g4077"
       transform="matrix(0.8660254,-0.5,0.5,0.8660254,-182.7632,242.37073)">
      <rect
         style="fill:#ffffff;fill-opacity:1;stroke:none"
         id="rect4079"
         width="5"
         height="20.19239"
         x="358.38834"
         y="306.12994"
         ry="1.1708659" />
    </g>
    <g
       transform="matrix(0.5,-0.8660254,0.8660254,0.5,-219.85541,543.65154)"
       id="g4083">
      <rect
         ry="1.1708659"
         y="306.12994"
         x="358.38834"
         height="20.19239"
         width="5"
         id="rect4085"
         style="fill:#ffffff;fill-opacity:1;stroke:none" />
    </g>
    <g
       id="g4107"
       transform="matrix(0.49572243,-0.0652631,0.13052619,0.99144486,120.40528,27.507099)">
      <rect
         style="fill:#ffffff;fill-opacity:1;stroke:none"
         id="rect4109"
         width="5"
         height="20.19239"
         x="358.38834"
         y="306.12994"
         ry="1.1708659" />
    </g>
    <g
       transform="matrix(0.48296291,-0.12940953,0.25881904,0.96592583,65.709731,62.452361)"
       id="g4113">
      <rect
         ry="1.1708659"
         y="306.12994"
         x="358.38834"
         height="20.19239"
         width="5"
         id="rect4115"
         style="fill:#ffffff;fill-opacity:1;stroke:none" />
    </g>
    <g
       id="g4119"
       transform="matrix(0.46193976,-0.19134172,0.38268343,0.92387954,16.043382,104.23786)">
      <rect
         style="fill:#ffffff;fill-opacity:1;stroke:none"
         id="rect4121"
         width="5"
         height="20.19239"
         x="358.38834"
         y="306.12994"
         ry="1.1708659" />
    </g>
    <g
       transform="matrix(0.39667667,-0.30438071,0.60876143,0.79335335,-64.903088,205.36493)"
       id="g4125">
      <rect
         ry="1.1708659"
         y="306.12994"
         x="358.38834"
         height="20.19239"
         width="5"
         id="rect4127"
         style="fill:#ffffff;fill-opacity:1;stroke:none" />
    </g>
    <g
       id="g4131"
       transform="matrix(0.35355339,-0.35355339,0.70710678,0.70710679,-94.798193,262.97619)">
      <rect
         style="fill:#ffffff;fill-opacity:1;stroke:none"
         id="rect4133"
         width="5"
         height="20.19239"
         x="358.38834"
         y="306.12994"
         ry="1.1708659" />
    </g>
    <g
       transform="matrix(0.30438071,-0.39667667,0.79335334,0.60876144,-116.91776,323.99667)"
       id="g4137">
      <rect
         ry="1.1708659"
         y="306.12994"
         x="358.38834"
         height="20.19239"
         width="5"
         id="rect4139"
         style="fill:#ffffff;fill-opacity:1;stroke:none" />
    </g>
    <g
       transform="matrix(0.49572243,0.0652631,-0.13052619,0.99144486,241.07051,-19.598281)"
       id="g4143">
      <rect
         ry="1.1708659"
         y="306.12994"
         x="358.38834"
         height="20.19239"
         width="5"
         id="rect4145"
         style="fill:#ffffff;fill-opacity:1;stroke:none" />
    </g>
    <g
       id="g4149"
       transform="matrix(0.48296291,0.12940953,-0.25881904,0.96592583,304.97558,-30.952413)">
      <rect
         style="fill:#ffffff;fill-opacity:1;stroke:none"
         id="rect4151"
         width="5"
         height="20.19239"
         x="358.38834"
         y="306.12994"
         ry="1.1708659" />
    </g>
    <g
       transform="matrix(0.46193976,0.19134172,-0.38268343,0.92387954,369.81595,-33.868123)"
       id="g4155">
      <rect
         ry="1.1708659"
         y="306.12994"
         x="358.38834"
         height="20.19239"
         width="5"
         id="rect4157"
         style="fill:#ffffff;fill-opacity:1;stroke:none" />
    </g>
    <g
       id="g4161"
       transform="matrix(0.39667667,0.30438071,-0.60876143,0.79335335,497.8678,-14.329961)">
      <rect
         style="fill:#ffffff;fill-opacity:1;stroke:none"
         id="rect4163"
         width="5"
         height="20.19239"
         x="358.38834"
         y="306.12994"
         ry="1.1708659" />
    </g>
    <g
       transform="matrix(0.35355339,0.35355339,-0.70710678,0.70710679,558.88828,7.7896079)"
       id="g4167">
      <rect
         ry="1.1708659"
         y="306.12994"
         x="358.38834"
         height="20.19239"
         width="5"
         id="rect4169"
         style="fill:#ffffff;fill-opacity:1;stroke:none" />
    </g>
    <g
       id="g4173"
       transform="matrix(0.30438071,0.39667667,-0.79335334,0.60876144,616.49954,37.684712)">
      <rect
         style="fill:#ffffff;fill-opacity:1;stroke:none"
         id="rect4175"
         width="5"
         height="20.19239"
         x="358.38834"
         y="306.12994"
         ry="1.1708659" />
    </g>
    <g
       transform="matrix(0.19134172,0.46193976,-0.92387953,0.38268344,717.62661,118.63118)"
       id="g4179">
      <rect
         ry="1.1708659"
         y="306.12994"
         x="358.38834"
         height="20.19239"
         width="5"
         id="rect4181"
         style="fill:#ffffff;fill-opacity:1;stroke:none" />
    </g>
    <g
       id="g4185"
       transform="matrix(0.19134172,-0.46193976,0.92387953,0.38268344,-136.45592,452.04852)">
      <rect
         style="fill:#ffffff;fill-opacity:1;stroke:none"
         id="rect4187"
         width="5"
         height="20.19239"
         x="358.38834"
         y="306.12994"
         ry="1.1708659" />
    </g>
    <g
       transform="matrix(0.12940953,-0.48296291,0.96592582,0.25881905,-133.54021,516.88889)"
       id="g4191">
      <rect
         ry="1.1708659"
         y="306.12994"
         x="358.38834"
         height="20.19239"
         width="5"
         id="rect4193"
         style="fill:#ffffff;fill-opacity:1;stroke:none" />
    </g>
    <g
       id="g4197"
       transform="matrix(0.0652631,-0.49572243,0.99144486,0.1305262,-122.18608,580.79396)">
      <rect
         style="fill:#ffffff;fill-opacity:1;stroke:none"
         id="rect4199"
         width="5"
         height="20.19239"
         x="358.38834"
         y="306.12994"
         ry="1.1708659" />
      <rect
         ry="1.1708659"
         y="598.12994"
         x="358.38834"
         height="20.19239"
         width="5"
         id="rect4201"
         style="fill:#ffffff;fill-opacity:1;stroke:none" />
    </g>
    <g
       transform="matrix(0,-1,1,0,-102.5878,821.86447)"
       id="g4203">
      <rect
         ry="1.1708659"
         y="306.12994"
         x="358.38834"
         height="20.19239"
         width="5"
         id="rect4205"
         style="fill:#ffffff;fill-opacity:1;stroke:none" />
      <rect
         style="fill:#ffffff;fill-opacity:1;stroke:none"
         id="rect4207"
         width="5"
         height="20.19239"
         x="358.38834"
         y="598.12994"
         ry="1.1708659" />
    </g>
    <g
       id="g4209"
       transform="matrix(0.12940953,0.48296291,-0.96592582,0.25881905,759.41211,168.29753)">
      <rect
         style="fill:#ffffff;fill-opacity:1;stroke:none"
         id="rect4211"
         width="5"
         height="20.19239"
         x="358.38834"
         y="306.12994"
         ry="1.1708659" />
    </g>
    <g
       transform="matrix(0.0652631,0.49572243,-0.99144486,0.1305262,794.35737,222.99308)"
       id="g4215">
      <rect
         ry="1.1708659"
         y="306.12994"
         x="358.38834"
         height="20.19239"
         width="5"
         id="rect4217"
         style="fill:#ffffff;fill-opacity:1;stroke:none" />
      <rect
         style="fill:#ffffff;fill-opacity:1;stroke:none"
         id="rect4219"
         width="5"
         height="20.19239"
         x="358.38834"
         y="598.12994"
         ry="1.1708659" />
    </g>
    <path
       style="fill:#ffffff;fill-opacity:1;stroke:none"
       d="m 391.30655,343.02126 1.33605,0.35799 -28.98722,122.52363 -5.08657,8.77496 -3.40279,-0.91177 -0.0176,-10.14262 36.15814,-120.60219 z"
       id="rect4235"
       sodipodi:nodetypes="ccccccc" />
    <path
       id="path4344"
       d="m 394.21645,344.11879 -35.10596,131.01722 1.8084,0.48456 5.08111,-8.75839 28.99148,-122.53572 -0.77503,-0.20767 z"
       style="fill:#000000;fill-opacity:1;stroke:none" />
    <path
       style="fill:#babdb6;fill-opacity:1;stroke:none"
       d="m 392.21645,342.61879 -35.10596,131.01722 1.8084,0.48456 5.08111,-8.75839 28.99148,-122.53572 -0.77503,-0.20767 z"
       id="path4263" />
    <path
       style="fill:url(#linearGradient4330);fill-opacity:1;stroke:none;filter:url(#filter4336)"
       d="m 360.875,303.15625 c -16.78029,0 -32.9624,2.60717 -48.15625,7.40625 l -31.8125,177.8125 185.1875,0 L 414.625,312.4375 c -16.79737,-6.00369 -34.88931,-9.28125 -53.75,-9.28125 z"
       id="path4316"
       sodipodi:nodetypes="cccccc" />
  </g>
</svg>
