<?xml version="1.0" standalone="no"?>
<!DOCTYPE svg PUBLIC "-//W3C//DTD SVG 1.1//EN" "http://www.w3.org/Graphics/SVG/1.1/DTD/svg11.dtd" >
<svg xmlns="http://www.w3.org/2000/svg">
<metadata>
This is a custom SVG webfont generated by Font Squirrel.
Copyright   : Copyright c 2010 by Marco Mller All rights reserved
Designer    : Marco Mller
Foundry     : Marco Mller
Foundry URL : www26pluszeichende
</metadata>
<defs>
<font id="MelbourneBold" horiz-adv-x="421" >
<font-face units-per-em="1000" ascent="750" descent="-250" />
<missing-glyph horiz-adv-x="210" />
<glyph unicode=" "  horiz-adv-x="210" />
<glyph unicode="&#x09;" horiz-adv-x="210" />
<glyph unicode="&#xa0;" horiz-adv-x="210" />
<glyph unicode="!" horiz-adv-x="139" d="M59 104h50q11 0 19 -8t8 -21v-46q0 -13 -8 -21t-19 -8h-50q-11 0 -19 8t-8 21v46q0 13 8 21t19 8zM63 700h39q3 0 8 -1t13.5 -8t8.5 -20v-484q-2 -26 -29 -29h-39q-3 0 -8 1t-13 8t-8 20v484q2 26 28 29z" />
<glyph unicode="&#x22;" horiz-adv-x="271" d="M73 529q-15 0 -21 29l-13 113q0 13 7 21t18 8h42q11 0 18 -8t7 -21l-13 -113q-3 -29 -21 -29h-24zM213 529q-15 0 -21 29l-13 113q0 13 7 21t18 8h42q11 0 18 -8t7 -21l-13 -113q-3 -29 -21 -29h-24z" />
<glyph unicode="#" horiz-adv-x="638" d="M66 197h98l32 130h-113q-31 0 -30 24l1 4l8 31q0 3 1.5 7t9.5 11t21 7h123l30 123q7 27 32 25h32q3 0 7.5 -1t10.5 -9.5t2 -24.5l-28 -113h125l31 123q7 27 32 25h32q3 0 7.5 -1t10.5 -9.5t2 -24.5l-28 -113h105q31 0 30 -24l-1 -4l-8 -31q0 -3 -1.5 -7t-9.5 -11t-21 -7 h-114l-32 -130h129q31 0 30 -24l-1 -4l-8 -31q0 -3 -1.5 -7t-9.5 -11t-21 -7h-139l-29 -121q-7 -27 -32 -25h-32q-3 0 -7.5 1t-10.5 9.5t-2 24.5l27 111h-126l-29 -121q-7 -27 -32 -25h-32q-3 0 -7.5 1t-10.5 9.5t-2 24.5l27 111h-89q-31 0 -30 24l1 4l8 31q0 3 1.5 7 t9.5 11t21 7zM283 327l-32 -130h125l32 130h-125z" />
<glyph unicode="$" horiz-adv-x="485" d="M228 781h37q11 0 19 -8t8 -21v-48q67 -11 107 -54t50 -107q4 -26 -20 -34l-35 -9q-34 -9 -41 22q-16 66 -61 81l1 -212l69 -36q45 -24 70.5 -68t25.5 -95q0 -76 -43.5 -129t-120.5 -66v-55q0 -12 -8 -20.5t-20 -8.5h-36q-11 0 -19 8t-8 21v56q-66 12 -112.5 61t-46.5 139 q2 26 29 29h40q3 0 7.5 -1t12.5 -8t8 -20q0 -81 61 -103v235l-48 25q-103 53 -103 173q0 70 41.5 115.5t108.5 58.5v50q0 13 8 21t19 8zM298 281l-5 2v-188q34 11 51 38.5t17 58.5q0 57 -63 89zM148 525q0 -58 42 -80l12 -6l-1 162q-53 -20 -53 -76z" />
<glyph unicode="%" horiz-adv-x="585" d="M474 671l-217 -642q-6 -18 -14 -23.5t-25 -5.5h-27q-34 0 -25 29l216 642q6 18 14 23.5t25 5.5h28q34 0 25 -29zM164 597q-33 0 -33 -40v-80q0 -39 32 -39q34 0 34 39v80q0 40 -33 40zM165 685q52 0 79 -32.5t27 -83.5v-106q0 -47 -32.5 -78.5t-74.5 -31.5 q-43 0 -74.5 31t-31.5 79v106q0 50 28 83t79 33zM463 244q-33 0 -33 -40v-80q0 -39 32 -39q34 0 34 39v80q0 40 -33 40zM464 332q52 0 79 -32.5t27 -83.5v-106q0 -47 -32.5 -78.5t-74.5 -31.5q-43 0 -74.5 31t-31.5 79v106q0 50 28 83t79 33z" />
<glyph unicode="&#x26;" horiz-adv-x="590" d="M213 300l-28 -25q-38 -34 -49 -55t-11 -56q0 -31 24.5 -59t66.5 -28q49 0 90 49l11 13zM455 239h23q12 0 20.5 -8.5t8.5 -19.5v-29q0 -11 -8 -19t-21 -8q-14 -1 -18.5 -1.5t-12.5 -5.5t-16 -17q16 -28 30.5 -37.5t37.5 -9.5h12q13 0 21 -8t8 -20v-29q0 -11 -8 -19t-21 -8 h-16h-9q-29 0 -43 2t-35 17t-41 46l-8 -9q-32 -35 -64 -49t-78 -14q-83 0 -130.5 50.5t-48.5 120.5q-1 95 72 159l57 51l-20 33q-38 67 -27.5 119.5t54 84.5t99.5 32q61 0 106 -34.5t45 -105.5q0 -13 -7.5 -21t-19.5 -8h-37q-12 0 -19.5 8t-7.5 21q0 21 -14 39.5t-44 18.5 q-41 0 -60 -32.5t3 -66.5l168 -261l7.5 7.5l7 7t6 5.5t6.5 5.5t6.5 4.5t7.5 4t7.5 2t9.5 1.5t11 0.5z" />
<glyph unicode="'" horiz-adv-x="139" d="M73 529q-15 0 -21 29l-13 113q0 13 7 21t18 8h42q11 0 18 -8t7 -21l-13 -113q-3 -29 -21 -29h-24z" />
<glyph unicode="(" horiz-adv-x="308" d="M50 287v136q0 316 149 439q12 7 21 5.5t15 -7.5l6 -5l23 -30q17 -22 -5 -40q-52 -46 -77 -127t-25 -235v-136q0 -154 25 -235t77 -127q21 -18 5 -40l-23 -30q-2 -3 -5.5 -6t-15 -7t-21.5 6q-149 123 -149 439z" />
<glyph unicode=")" horiz-adv-x="348" d="M281 423v-136q0 -316 -149 -439q-12 -7 -21 -5.5t-15 7.5l-6 5l-23 30q-17 22 5 40q52 46 77 127t25 235v136q0 154 -25 235t-77 127q-21 18 -5 40l23 30q2 3 5.5 6t15 7t21.5 -6q149 -123 149 -439z" />
<glyph unicode="+" horiz-adv-x="314" d="M38 310h97v96q0 12 8.5 20.5t19.5 8.5h29q11 0 19 -8t8 -21v-96h95q12 0 20.5 -8t8.5 -20v-29q0 -11 -8 -19t-21 -8h-95v-96q0 -13 -8 -21t-19 -8h-29q-11 0 -19.5 8.5t-8.5 20.5v96h-97q-13 0 -21 8t-8 19v29q0 12 8.5 20t20.5 8z" />
<glyph unicode="," horiz-adv-x="199" d="M31 -106v10q0 17 21 17q22 0 31 19.5t9 59.5h-16q-11 0 -19 8t-8 21v46q0 13 8 21t19 8h50q11 0 19 -8t8 -21v-65q0 -60 -23.5 -96.5t-68.5 -36.5h-9q-21 0 -21 17z" />
<glyph unicode="-" horiz-adv-x="307" d="M81 310h173q12 0 20.5 -8t8.5 -20v-29q0 -11 -8 -19t-21 -8h-173q-13 0 -21 8t-8 19v29q0 12 8 20t21 8z" />
<glyph unicode="." horiz-adv-x="169" d="M71 104h50q11 0 19 -8t8 -21v-46q0 -13 -8 -21t-19 -8h-50q-11 0 -19 8t-8 21v46q0 13 8 21t19 8z" />
<glyph unicode="/" horiz-adv-x="328" d="M344 706l-242 -712q-6 -18 -14 -23.5t-25 -5.5h-27q-34 0 -25 29l241 712q6 18 14 23.5t25 5.5h28q34 0 25 -29z" />
<glyph unicode="0" horiz-adv-x="474" d="M242 707q89 0 136 -57t47 -152v-295q0 -93 -50 -151.5t-133 -58.5t-132.5 58.5t-49.5 151.5v295q0 95 46.5 152t135.5 57zM242 85q44 0 65 31t21 103v261q0 72 -21 102t-65 30t-64.5 -30t-20.5 -102v-261q0 -73 20.5 -103.5t64.5 -30.5z" />
<glyph unicode="1" d="M422 0h-358q-26 2 -29 28v39v3t1.5 7t4.5 8.5t8.5 6.5t13.5 3h132v510h-73q-26 2 -29 28v39v3t1.5 7t4.5 8.5t8.5 6.5t13.5 3h142q26 -2 29 -29v-576h131q25 -2 28 -28v-39q0 -3 -1 -7.5t-8 -12.5t-20 -8z" />
<glyph unicode="2" horiz-adv-x="432" d="M239 707q93 0 138.5 -56t45.5 -136q0 -111 -76 -206l-172 -214h216q26 -2 29 -28v-41q0 -3 -1.5 -7.5t-8.5 -11.5t-19 -7h-316q-12 0 -19 6.5t-8 13.5l-2 6v41q0 11 5 21l205 259q45 57 57.5 88.5t12.5 79.5q0 52 -23.5 79t-60.5 27q-39 0 -59.5 -26.5t-20.5 -72.5 q-1 -27 -31 -29h-39q-3 0 -7.5 1t-12.5 8t-8 20q0 86 48 135.5t127 49.5z" />
<glyph unicode="3" horiz-adv-x="462" d="M60 522q0 86 48 135.5t127 49.5q87 0 132.5 -52t45.5 -142q0 -116 -51 -157q59 -48 59 -157q0 -96 -49.5 -150.5t-137.5 -54.5q-52 0 -90.5 19.5t-57.5 51t-27.5 62.5t-8.5 62q0 13 7 20t13 8l7 1h40q3 0 8 -1t13.5 -8t8.5 -20q0 -49 23 -75t64 -26q42 0 66 24t24 87 q0 59 -22 86.5t-53 27.5h-21q-27 2 -30 30v36q0 3 1 7.5t8.5 12.5t20.5 8h22q66 0 66 106q0 99 -81 99q-78 0 -78 -90q0 -13 -7.5 -20t-15.5 -8l-7 -1h-39q-3 0 -7.5 1t-12.5 8t-8 20z" />
<glyph unicode="4" horiz-adv-x="459" d="M122 252h145v313zM364 252h37q13 0 20.5 -7t8.5 -14l1 -7v-37q0 -3 -1 -8t-8.5 -13.5t-21.5 -8.5h-36v-127q0 -13 -7 -20.5t-15 -8.5l-7 -1h-38q-3 0 -8 1t-13.5 8.5t-8.5 20.5v127h-217q-14 0 -21.5 7.5t-8.5 15.5l-1 7v30q0 30 6 40l203 423q12 18 27 20h79q3 0 8 -1 t13.5 -8.5t8.5 -20.5v-418z" />
<glyph unicode="5" horiz-adv-x="447" d="M137 604v-158q35 18 91 18q88 0 136 -57t48 -142v-59q0 -95 -49.5 -154t-134.5 -59q-88 0 -138 54t-50 151q2 26 28 29h41q3 0 7.5 -1t12.5 -8t8 -20q0 -63 22 -86.5t69 -23.5q87 0 87 118v57q0 109 -87 109q-39 0 -65 -12t-26 -36q-2 -26 -28 -29h-41q-3 0 -7.5 1 t-12.5 8t-8 20v346q2 26 28 29h280q25 -2 28 -28v-38q0 -3 -1 -8t-8 -13t-19 -8h-211z" />
<glyph unicode="6" horiz-adv-x="456" d="M149 495v-82q35 33 93 33q88 0 135 -57t47 -142v-40q0 -96 -49.5 -154.5t-141.5 -58.5q-84 0 -132.5 59.5t-48.5 153.5v288q0 102 51.5 157t135.5 55t133.5 -53.5t49.5 -134.5q-2 -28 -28 -31h-39q-3 0 -7.5 1t-12.5 8.5t-8 21.5q0 93 -88 93q-43 0 -66.5 -25t-23.5 -92z M149 242v-32q0 -121 84 -121q46 0 70 28t24 93v32q0 109 -84 109q-94 0 -94 -109z" />
<glyph unicode="7" horiz-adv-x="403" d="M58 37l180 421l36 85q15 38 17 62h-244q-26 2 -29 28v39v3t1.5 7t4.5 8.5t8.5 6.5t13.5 3h314q25 -2 28 -28v-47q0 -53 -30 -120l-205 -485q-10 -20 -29 -20h-42h-10t-9.5 2t-8 6t-2 11t5.5 18z" />
<glyph unicode="8" horiz-adv-x="450" d="M236 416q77 0 77 102q0 55 -20.5 75t-56.5 20q-80 0 -80 -95q0 -102 80 -102zM236 88q39 0 63 27t24 83q0 62 -24 93t-63 31q-40 0 -64.5 -31t-24.5 -93q0 -56 24 -83t65 -27zM411 518q0 -96 -57 -148q30 -20 45.5 -54.5t18 -58t2.5 -59.5q0 -24 -5 -50t-18.5 -54.5 t-33.5 -50t-53 -36t-74 -14.5q-51 0 -89.5 21t-58.5 54t-29 66t-9 64q0 116 65 171q-57 52 -57 149q0 32 7.5 61.5t25 60t55 49t90.5 18.5q42 0 74.5 -13t51 -32t30 -45.5t15.5 -50t4 -48.5z" />
<glyph unicode="9" horiz-adv-x="460" d="M247 707q85 0 134 -60.5t49 -156.5v-279q0 -100 -51 -159t-139 -59q-86 0 -137 55t-51 139q0 13 7 20.5t15 8.5l7 1h40q3 0 7.5 -1t12.5 -8.5t8 -20.5q0 -50 25 -75t66 -25q44 0 68 32t24 92v69q-38 -27 -90 -27q-91 0 -141.5 58.5t-50.5 145.5v33q0 95 54.5 156 t142.5 61zM242 347q90 0 90 102v41q0 64 -23.5 93.5t-61.5 29.5q-43 0 -71.5 -30t-28.5 -93v-31q0 -112 95 -112z" />
<glyph unicode=":" horiz-adv-x="176" d="M77 104h50q11 0 19 -8t8 -21v-46q0 -13 -8 -21t-19 -8h-50q-11 0 -19 8t-8 21v46q0 13 8 21t19 8zM77 382h50q11 0 19 -8t8 -21v-46q0 -13 -8 -21t-19 -8h-50q-11 0 -19 8t-8 21v46q0 13 8 21t19 8z" />
<glyph unicode=";" horiz-adv-x="184" d="M85 382h50q11 0 19 -8t8 -21v-46q0 -13 -8 -21t-19 -8h-50q-11 0 -19 8t-8 21v46q0 13 8 21t19 8zM40 -106v10q0 17 21 17q22 0 31 19.5t9 59.5h-16q-11 0 -19 8t-8 21v46q0 13 8 21t19 8h50q11 0 19 -8t8 -21v-65q0 -60 -23.5 -96.5t-68.5 -36.5h-9q-21 0 -21 17z" />
<glyph unicode="&#x3c;" horiz-adv-x="326" />
<glyph unicode="=" horiz-adv-x="485" d="M94 394h332q12 0 20.5 -8t8.5 -20v-29q0 -11 -8 -19t-21 -8h-332q-13 0 -21 8t-8 19v29q0 12 8.5 20t20.5 8zM94 225h332q12 0 20.5 -8.5t8.5 -19.5v-29q0 -11 -8 -19t-21 -8h-332q-13 0 -21 8t-8 19v29q0 11 8.5 19.5t20.5 8.5z" />
<glyph unicode="?" horiz-adv-x="433" d="M190 104h50q11 0 19 -8t8 -21v-46q0 -13 -8 -21t-19 -8h-50q-11 0 -19 8t-8 21v46q0 13 8 21t19 8zM264 269v-82q-1 -27 -31 -29h-39q-3 0 -7.5 1t-12.5 8t-8 20v82q0 71 30 107l67 80q29 36 29 81q0 44 -20 64t-64 20q-49 0 -64.5 -23.5t-15.5 -75.5q-1 -27 -31 -29h-39 q-3 0 -7.5 1t-12.5 8t-8 20q0 86 48 135.5t127 49.5q94 0 139 -48t45 -122q0 -71 -33 -111l-77 -93q-10 -12 -12.5 -24t-2.5 -40z" />
<glyph unicode="@" horiz-adv-x="704" d="M333 -162q-143 31 -210.5 113.5t-67.5 230.5v170q0 35 6 71t26.5 80t53 77t91 55.5t134.5 22.5q127 0 219 -78t92 -213v-99q0 -132 -63.5 -213.5t-197.5 -81.5q-98 0 -157 51t-59 116q0 62 25.5 96t92.5 51l119 29v42q0 31 -20.5 51t-51.5 20q-33 0 -50 -14.5t-17 -37.5 q0 -13 -7.5 -21t-19.5 -8h-37q-12 0 -19.5 8t-7.5 21q0 61 44.5 98.5t113.5 37.5t116 -46t47 -131v-188q0 -13 -7.5 -21t-19.5 -8h-37q-12 0 -19.5 8t-7.5 21v80l-105 -25q-41 -9 -41 -59q0 -29 35 -54.5t100 -25.5q95 0 127.5 50.5t32.5 164.5v78q0 74 -34 125t-81.5 71.5 t-104.5 20.5q-61 0 -105.5 -20.5t-68.5 -55.5t-35 -74t-11 -82v-150q0 -119 46 -179t163 -84q27 -6 22 -33l-10 -38q-5 -26 -34 -20z" />
<glyph unicode="A" horiz-adv-x="548" d="M276 595h-2l-64 -252h129zM233 700h83q23 0 30 -24l180 -644q5 -29 -25 -32h-46q-21 0 -28 24l-63 224h-178l-66 -224q-8 -24 -27 -24h-47q-4 0 -9 1t-12 9t-3 22l182 644q7 24 29 24z" />
<glyph unicode="B" horiz-adv-x="510" d="M177 604v-190h64q57 0 89 24.5t32 70.5q0 95 -105 95h-80zM80 700h177q102 0 152.5 -52t50.5 -139t-62 -134q80 -43 80 -163q0 -89 -53 -150.5t-158 -61.5h-187v700zM177 322v-228h90q52 0 83 30.5t31 85.5q0 64 -32 88t-90 24h-82z" />
<glyph unicode="C" horiz-adv-x="522" d="M279 707q92 0 141 -47t60 -123q4 -26 -20 -34l-35 -9q-14 -4 -26.5 2.5t-14.5 19.5q-5 45 -31.5 70.5t-73.5 25.5q-58 0 -85 -32t-27 -101v-259q0 -69 27 -100.5t85 -31.5q108 0 108 132q2 26 28 29h40q3 0 8 -1t13 -8t8 -20q0 -103 -49.5 -165t-155.5 -62 q-101 0 -155 62.5t-54 164.5v259q0 102 54 165t155 63z" />
<glyph unicode="D" horiz-adv-x="539" d="M80 700h200q106 0 156 -62t50 -164v-248q0 -102 -50 -164t-156 -62h-200v700zM177 606v-512h103q109 0 109 132v248q0 132 -109 132h-103z" />
<glyph unicode="E" horiz-adv-x="503" d="M80 700h353q26 -2 29 -28v-39v-3t-1.5 -7t-4.5 -8.5t-8.5 -6.5t-13.5 -3h-257v-205h190q26 -2 29 -28v-39v-3t-1.5 -7t-4.5 -8.5t-8.5 -6.5t-13.5 -3h-191v-210h256q26 -2 29 -28v-39v-3t-1.5 -7t-4.5 -8.5t-8.5 -6.5t-13.5 -3h-354v700z" />
<glyph unicode="F" horiz-adv-x="483" d="M80 700h334q26 -2 29 -28v-41q0 -3 -1.5 -7.5t-8.5 -11.5t-19 -7h-237v-205h171q26 -2 29 -28v-41q0 -3 -1.5 -7.5t-8.5 -11.5t-19 -7h-171v-278q-1 -12 -8.5 -18.5t-14.5 -7.5l-6 -1h-39q-3 0 -8 1t-13 8t-8 20v671z" />
<glyph unicode="G" horiz-adv-x="517" d="M262 707q92 0 141 -46.5t60 -121.5q5 -28 -20 -34l-38 -10q-14 -4 -24.5 3t-12.5 19q-15 95 -106 95q-56 0 -80.5 -31t-24.5 -101v-259q0 -69 27 -101t85 -32q108 0 108 133v38h-123q-26 2 -29 29v37q0 3 1 8t8 13t20 8h191q3 0 8 -1t13 -8t8 -20v-104 q0 -103 -49.5 -165.5t-155.5 -62.5q-101 0 -155 63t-54 165v259q0 103 51 165t151 62z" />
<glyph unicode="H" horiz-adv-x="557" d="M108 700h39q3 0 8 -1t13.5 -8t8.5 -20v-261h221v261q2 26 28 29h39q3 0 8 -1t13.5 -8t8.5 -20v-642q-2 -26 -29 -29h-39q-3 0 -8 1t-13 8t-8 20v286h-221v-286q-2 -26 -29 -29h-39q-3 0 -8 1t-13 8t-8 20v642q2 26 28 29z" />
<glyph unicode="I" horiz-adv-x="221" d="M108 700h39q3 0 8 -1t13.5 -8t8.5 -20v-642q-2 -26 -29 -29h-39q-3 0 -8 1t-13 8t-8 20v642q2 26 28 29z" />
<glyph unicode="J" horiz-adv-x="350" d="M238 700h40q3 0 8 -1t13 -8t8 -20v-450q0 -100 -61.5 -164t-170.5 -64q-13 0 -20.5 7t-8.5 14l-1 8v36q0 3 1 8t8.5 13.5t20.5 8.5q135 0 135 133v450q2 26 28 29z" />
<glyph unicode="K" horiz-adv-x="545" d="M108 700h40q3 0 8 -1t13 -8t8 -20v-258l189 267q10 20 31 20h45h5t9.5 -2.5t10.5 -6.5t4 -12.5t-7 -19.5l-181 -260l140 -250q17 -29 29 -41.5t29 -12.5h5q27 -2 30 -30v-35q0 -3 -1 -8t-8.5 -13.5t-20.5 -8.5h-20q-44 0 -73.5 24t-63.5 83l-116 200l-36 -51v-227 q-2 -26 -28 -29h-41q-3 0 -7.5 1t-12.5 8t-8 20v642q2 26 28 29z" />
<glyph unicode="L" horiz-adv-x="428" d="M108 700h40q3 0 8 -1t13 -8t8 -20v-576h199q13 0 20.5 -7t8.5 -14l1 -7v-38q0 -3 -1 -8t-8.5 -13t-20.5 -8h-296v671q2 26 28 29z" />
<glyph unicode="M" horiz-adv-x="606" d="M109 700h59q20 0 31 -22l112 -262l111 262q10 22 31 22h57q3 0 8 -1t13.5 -8t8.5 -20v-642q0 -3 -1 -8t-8.5 -13t-20.5 -8h-37q-3 0 -8 1t-13.5 8t-8.5 20l10 494l-89 -224q-9 -21 -28 -21h-45q-21 0 -30 21l-94 229l10 -499q0 -3 -1 -8t-8 -13t-20 -8h-39q-3 0 -8 1 t-13 8t-8 20v642q0 3 1 8t8 13t20 8z" />
<glyph unicode="N" horiz-adv-x="566" d="M109 700h60q20 0 31 -22l211 -504l-6 497q0 3 1 8t8 13t20 8h39q3 0 8 -1t13 -8t8 -20v-642q0 -3 -1 -8t-8 -13t-20 -8h-60q-22 0 -31 21l-210 505l5 -497q0 -3 -1 -8t-8 -13t-20 -8h-39q-3 0 -8 1t-13 8t-8 20v642q0 3 1 8t8 13t20 8z" />
<glyph unicode="O" horiz-adv-x="538" d="M278 707q106 0 156.5 -63t50.5 -165v-259q0 -102 -50.5 -164.5t-156.5 -62.5t-157 62.5t-51 164.5v259q0 102 51 165t157 63zM278 612q-111 0 -111 -133v-259q0 -132 111 -132q110 0 110 132v259q0 133 -110 133z" />
<glyph unicode="P" horiz-adv-x="508" d="M80 700h168q107 0 158 -58.5t51 -158.5v-25q0 -100 -51 -158t-158 -58h-71v-213q-2 -26 -28 -29h-40q-3 0 -8 1t-13 8t-8 20v671zM177 607v-271h71q112 0 112 122v25q0 124 -112 124h-71z" />
<glyph unicode="Q" horiz-adv-x="560" d="M278 707q106 0 157 -63t51 -165v-259q0 -91 -35 -128h36q12 0 19.5 -7t8.5 -13l1 -7v-35q0 -3 -1 -8t-8 -13.5t-20 -8.5h-21q-82 0 -93 12q-40 -19 -95 -19q-106 0 -157 62.5t-51 164.5v259q0 102 51 165t157 63zM278 612q-110 0 -110 -133v-259q0 -132 110 -132 q17 0 25 2l-47 75q-20 34 19 39l7 1h36q21 0 30 -16l27 -43q13 31 13 74v259q0 133 -110 133z" />
<glyph unicode="R" horiz-adv-x="542" d="M81 700h176q209 0 209 -208q0 -81 -30 -127t-91 -71l72 -152q27 -47 52 -47h15q13 0 20 -7.5t8 -15.5l1 -7v-35q0 -3 -1 -8t-8 -13.5t-20 -8.5h-21q-44 0 -73.5 24t-63.5 84l-78 170h-70v-249q-2 -26 -28 -29h-40q-3 0 -8 1t-13 8t-8 20v671zM178 606v-233h79 q59 0 85.5 29.5t26.5 91.5q0 64 -28 88t-84 24h-79z" />
<glyph unicode="S" horiz-adv-x="486" d="M249 707q87 0 138 -45t62 -119q4 -26 -20 -34l-35 -9q-34 -9 -41 22q-11 47 -35 67t-69 20q-52 0 -76.5 -25t-24.5 -59q0 -58 42 -80l172 -90q45 -24 70.5 -68t25.5 -95q0 -87 -56 -143t-153 -56q-34 0 -67.5 10.5t-65.5 32.5t-52 64t-20 98q2 26 29 29h40q3 0 7.5 -1 t12.5 -8t8 -20q0 -61 31.5 -85.5t76.5 -24.5q56 0 84 31.5t28 72.5q0 57 -63 89l-144 74q-103 53 -103 173q0 83 57 131t141 48z" />
<glyph unicode="T" horiz-adv-x="481" d="M69 700h360q26 -2 29 -28v-38q0 -3 -1 -8t-8 -13t-20 -8h-132v-576q-2 -26 -28 -29h-40q-3 0 -8 1t-13 8t-8 20v576h-131q-26 2 -29 28v38q0 3 1 8t8 13t20 8z" />
<glyph unicode="U" horiz-adv-x="524" d="M93 700h40q3 0 8 -1t13 -8t8 -20v-423q0 -90 26 -125t85 -35q54 0 81.5 36t27.5 124v423q2 26 28 29h40q3 0 8 -1t13 -8t8 -20v-418q0 -114 -50.5 -187t-155.5 -73q-103 0 -155.5 73t-52.5 187v418q2 26 28 29z" />
<glyph unicode="V" horiz-adv-x="535" d="M71 700h45q20 0 28 -24l133 -551h7l131 551q7 24 28 24h45q4 0 9 -1t12.5 -9t3.5 -22l-161 -644q-3 -11 -10.5 -17t-13.5 -7h-6h-84q-25 0 -31 25l-161 643q-4 29 25 32z" />
<glyph unicode="W" horiz-adv-x="753" d="M75 700h45q22 0 28 -24l98 -551l92 497q6 29 31 29h42q26 0 32 -29l91 -497l99 552q6 24 28 24h45q4 0 9 -1t12 -9t4 -22l-123 -644q-2 -11 -10 -17.5t-14 -7.5h-7h-84q-26 0 -33 28l-70 433l-71 -436q-2 -11 -10 -17.5t-15 -7.5h-6h-85q-24 0 -30 25l-123 643 q-3 29 25 32z" />
<glyph unicode="X" horiz-adv-x="571" d="M118 700h44q20 0 30 -17l115 -212l114 212q9 17 30 17h44q11 0 16 -0.5t11 -3.5t5 -10t-7 -18l-159 -293l190 -343q6 -11 7 -18t-5 -10t-11 -3.5t-16 -0.5h-44q-21 0 -30 17l-148 266l-145 -266q-10 -17 -30 -17h-44q-11 0 -16 0.5t-11 3.5t-5 10t7 18l191 349l-158 287 q-6 11 -7 18t5 10t11 3.5t16 0.5z" />
<glyph unicode="Y" horiz-adv-x="539" d="M74 700h55q21 0 28 -24l138 -346h10l123 346q8 24 28 24h48q9 0 14 -1t12 -8.5t-1 -22.5l-234 -644q-6 -16 -12 -20t-16 -4h-46q-9 0 -14 1t-12 8.5t1 22.5l65 178h-9q-12 0 -18 15l-178 443q-7 20 -2.5 26t20.5 6z" />
<glyph unicode="Z" horiz-adv-x="537" d="M94 700h359q3 0 7.5 -1.5t11.5 -8.5t7 -19v-44q0 -10 -5 -21l-293 -511h279q26 -2 29 -28v-41q0 -3 -1.5 -7.5t-8.5 -11.5t-19 -7h-366q-12 0 -19 6.5t-9 13.5l-1 6v41q0 11 5 21l294 517h-270q-26 2 -29 28v41q0 3 1.5 7.5t8.5 11.5t19 7z" />
<glyph unicode="_" horiz-adv-x="526" d="M64 -25h437q13 0 21 -8.5t8 -19.5v-20q0 -11 -8 -19t-21 -8h-437q-13 0 -21 8t-8 19v20q0 11 8.5 19.5t20.5 8.5z" />
<glyph unicode="`" horiz-adv-x="143" />
<glyph unicode="a" horiz-adv-x="431" d="M183 197q-47 -11 -47 -56q0 -25 18 -44.5t46 -19.5q37 0 62.5 29.5t25.5 65.5v50zM216 507q69 0 116 -46t47 -131v-301q0 -13 -8 -21t-19 -8h-35q-11 0 -19 8t-8 21v9q-13 -20 -41.5 -32.5t-58.5 -12.5q-60 0 -102.5 42t-42.5 102t27.5 93.5t96.5 50.5l119 29v42 q0 31 -20.5 51t-51.5 20q-33 0 -50 -14.5t-17 -37.5q0 -13 -7.5 -21t-19.5 -8h-37q-12 0 -19.5 8t-7.5 21q0 61 44.5 98.5t113.5 37.5z" />
<glyph unicode="b" horiz-adv-x="459" d="M97 700h37q11 0 19 -8t8 -21v-201q25 37 92 37q72 0 112.5 -45t40.5 -130v-169q0 -73 -43.5 -121.5t-113.5 -48.5q-64 0 -90 45v-9q0 -13 -8 -21t-19 -8h-35q-11 0 -19 8t-8 21v642q0 13 8 21t19 8zM240 423q-41 0 -60.5 -25t-19.5 -59v-181q0 -36 23 -58.5t61 -22.5 q33 0 52 20t19 61v181q0 84 -75 84z" />
<glyph unicode="c" horiz-adv-x="451" d="M234 507q57 0 101.5 -28t56.5 -91q4 -25 -21 -32l-34 -8q-28 -7 -34 22q-11 53 -69 53q-40 0 -59 -24.5t-19 -78.5v-148q0 -95 78 -95q36 0 56 22t20 51q0 13 7 20.5t15 8.5l7 1h31q31 0 31 -31q0 -42 -16 -74t-42 -49t-53.5 -25t-55.5 -8q-83 0 -126 45.5t-43 133.5v148 q0 95 50 141t119 46z" />
<glyph unicode="d" horiz-adv-x="443" d="M203 507q22 0 49.5 -10t41.5 -27v200q2 26 28 29h37q11 0 18.5 -8t7.5 -21v-641q0 -13 -8 -21t-19 -8h-35q-11 0 -19 8t-8 21v9q-37 -45 -95 -45q-71 0 -111 43.5t-40 125.5v169q0 79 37.5 127.5t115.5 48.5zM214 423q-73 0 -73 -85v-183q0 -78 69 -78q84 0 84 78v183 q0 45 -24 65t-56 20z" />
<glyph unicode="e" horiz-adv-x="452" d="M240 507q70 0 115.5 -39.5t45.5 -104.5v-67q0 -47 -48 -55l-197 -37v-49q1 -33 22 -55.5t55 -22.5q40 0 58.5 22t18.5 54q0 13 7 20.5t15 8.5l7 1h31q31 0 31 -31q0 -68 -46 -113.5t-122 -45.5q-74 0 -121 46t-47 116v177q0 77 46.5 126t128.5 49zM235 423q-41 0 -60 -23 t-19 -60v-50l154 30v43q0 29 -20.5 44.5t-54.5 15.5z" />
<glyph unicode="f" horiz-adv-x="317" d="M114 540q0 76 40.5 118t119.5 42h20q12 0 20.5 -8t8.5 -20v-29q0 -11 -8 -19t-21 -8h-20q-43 0 -56 -20t-13 -56v-49h83q12 0 20.5 -8.5t8.5 -19.5v-29q0 -11 -8 -19t-21 -8h-83v-378q0 -13 -8.5 -21t-19.5 -8h-36q-11 0 -19 8t-8 21v378h-20q-13 0 -21 8t-8 19v29 q0 11 8.5 19.5t20.5 8.5h20v49z" />
<glyph unicode="g" horiz-adv-x="482" d="M226 507h78q39 0 54 13l14 13q18 19 40 1l21 -19q20 -20 0 -40l-9 -11q-24 -29 -59 -36q21 -20 26.5 -43.5t5.5 -60.5v-27q0 -67 -49 -113t-122 -46q-32 0 -54 11l-32 -40q-9 -13 -4 -18.5t23 -4.5l155 5q52 2 82 -31t30 -91q0 -18 -4 -38.5t-16 -47.5t-31 -48 t-52.5 -35.5t-76.5 -14.5q-82 0 -130.5 31.5t-48.5 83.5q0 28 7.5 55.5t15.5 41.5l7 14q-22 2 -36.5 17t-16.5 34q-5 37 27 78l35 44q-44 44 -44 119v21q0 83 43 133t121 50zM229 423q-39 0 -57.5 -29.5t-18.5 -69.5v-26q0 -29 19 -52.5t54 -23.5q32 0 56 22t24 54v26 q0 99 -77 99zM292 10l-110 -4q-30 -41 -30 -88q0 -24 23.5 -37.5t61.5 -13.5q44 0 74 26t29 70q-2 49 -48 47z" />
<glyph unicode="h" horiz-adv-x="460" d="M102 700h37q11 0 19 -8t8 -21v-206q5 13 28.5 27.5t64.5 14.5q71 0 110 -44.5t39 -130.5v-303q0 -13 -8 -21t-19 -8h-37q-11 0 -19 8t-8 21v310q0 84 -71 84q-41 0 -60.5 -25t-19.5 -59v-310q0 -13 -8 -21t-19 -8h-37q-11 0 -19 8t-8 21v642q0 13 8 21t19 8z" />
<glyph unicode="i" horiz-adv-x="221" d="M106 500h37q11 0 19 -8t8 -21v-442q0 -13 -8 -21t-20 -8h-36q-11 0 -19 8t-8 21v442q0 13 8 21t19 8zM148 700q11 0 19 -8t8 -21v-52q0 -13 -8 -21t-19 -8h-46q-11 0 -19 8t-8 21v52q0 13 8 21t19 8h46z" />
<glyph unicode="j" horiz-adv-x="247" d="M132 700h46q11 0 19 -8t8 -21v-52q0 -13 -8 -21t-19 -8h-46q-11 0 -19 8t-8 21v52q0 13 8 21t19 8zM136 500h36q11 0 19 -8t8 -21v-487q0 -76 -40.5 -118t-119.5 -42h-20q-13 0 -21 8t-8 20v29q0 11 8 19t21 8h20q43 0 56 20t13 56v487q0 13 8 21t20 8z" />
<glyph unicode="k" horiz-adv-x="419" d="M97 700h36q11 0 19.5 -8t8.5 -21v-340l124 149q15 20 31 20h54h2t4.5 -1t6 -2.5t4.5 -4t2.5 -6.5t-2 -10t-8.5 -14l-140 -168l77 -158q28 -52 62 -52h15q13 0 21 -8t8 -20v-29q0 -11 -8 -19t-21 -8h-20q-43 0 -74.5 23t-61.5 77l-61 129l-15 -17v-183q0 -13 -8.5 -21 t-19.5 -8h-36q-11 0 -19 8t-8 21v642q0 13 8 21t19 8z" />
<glyph unicode="l" horiz-adv-x="258" d="M99 700h36q11 0 19.5 -8t8.5 -21v-518q0 -23 3.5 -37.5t19.5 -26.5t46 -12h20q13 0 21 -8t8 -19v-29q0 -11 -8.5 -19.5t-20.5 -8.5h-20q-79 0 -119.5 42t-40.5 118v518q0 13 8 21t19 8z" />
<glyph unicode="m" horiz-adv-x="666" d="M97 500h37q11 0 19 -8t8 -21v-7q26 43 92 43q56 0 88 -48q31 48 108 48q149 0 149 -175v-303q-2 -26 -28 -29h-34q-3 0 -8 1t-13 8t-8 20v303q0 43 -12 67t-46 24q-22 0 -42 -19t-20 -43v-332q-2 -26 -28 -29h-35q-3 0 -7.5 1t-12.5 8t-8 20v332q0 24 -14 43t-43 19 q-40 0 -59 -27.5t-19 -63.5v-303q-2 -26 -29 -29h-34q-3 0 -7.5 1t-12.5 8t-8 20v442q0 13 8 21t19 8z" />
<glyph unicode="n" horiz-adv-x="456" d="M97 500h37q11 0 19 -8t8 -21v-6q9 14 34.5 28t58.5 14q71 0 110 -44.5t39 -130.5v-303q0 -13 -8 -21t-19 -8h-37q-11 0 -19 8t-8 21v310q0 84 -71 84q-41 0 -60.5 -25t-19.5 -59v-310q0 -13 -8 -21t-19 -8h-37q-11 0 -19 8t-8 21v442q0 13 8 21t19 8z" />
<glyph unicode="o" horiz-adv-x="422" d="M218 423q-77 0 -77 -101v-150q0 -95 76 -95q78 0 78 95v150q0 101 -77 101zM219 -7h-2q-76 0 -121.5 47.5t-45.5 131.5v150q0 95 44.5 140t123.5 45t123.5 -45t44.5 -140v-150q0 -84 -45.5 -131.5t-121.5 -47.5z" />
<glyph unicode="p" d="M72 500h37q11 0 19 -8t8 -21v-6q11 17 36.5 29.5t55.5 12.5q72 0 112.5 -45t40.5 -130v-169q0 -73 -42 -121.5t-107 -48.5q-29 0 -57.5 12t-40.5 33v-221q0 -13 -8 -21t-19 -8h-35q-11 0 -19 8t-8 21v654q0 13 8 21t19 8zM215 423q-41 0 -60.5 -25t-19.5 -59v-181 q0 -36 23 -58.5t61 -22.5q33 0 52 20t19 61v181q0 84 -75 84z" />
<glyph unicode="q" horiz-adv-x="441" d="M141 338v-176q0 -42 19.5 -63.5t45.5 -21.5q41 0 64.5 29t23.5 67v165q0 45 -24 65t-56 20q-73 0 -73 -85zM50 162v169q0 79 37.5 127.5t115.5 48.5q23 0 50 -10.5t41 -31.5v13q2 26 28 29h37q11 0 18.5 -8t7.5 -21v-661q0 -13 -8 -21t-19 -8h-35q-11 0 -19 8t-8 21v221 q-13 -20 -40.5 -32.5t-57.5 -12.5q-58 0 -103 45.5t-45 123.5z" />
<glyph unicode="r" horiz-adv-x="266" d="M267 507q13 0 21 -8t8 -19v-29q0 -11 -8 -19.5t-21 -8.5q-106 0 -106 -84v-310q0 -13 -8 -21t-19 -8h-37q-11 0 -19 8t-8 21v442q0 13 8 21t19 8h37q11 0 19 -8t8 -21v-6q25 25 44.5 33.5t61.5 8.5z" />
<glyph unicode="s" horiz-adv-x="416" d="M145 152q0 -75 72 -75q28 0 44 17.5t16 40.5q0 39 -44 65l-82 48q-76 45 -76 123q0 54 38 95t103 41q133 0 148 -112q3 -28 -23 -34l-29 -4q-11 -1 -21 6t-12 21q-7 42 -60 42q-21 0 -39 -16t-18 -39q0 -31 38 -53l71 -40q94 -52 94 -143q0 -56 -41.5 -99t-107.5 -43 q-46 0 -79 16t-49.5 42t-23.5 51.5t-7 50.5q0 13 7 20.5t14 8.5l7 1h29q31 0 31 -31z" />
<glyph unicode="t" horiz-adv-x="341" d="M295 0h-16q-81 0 -120.5 37t-39.5 123v247h-22q-25 2 -28 28v27q0 3 1 8t8 13t19 8h22v161q2 25 28 28h34q3 0 8 -1t13 -8t8 -19v-161h77q26 -2 29 -28v-27q0 -3 -1 -8t-8 -13t-20 -8h-77v-247q0 -76 69 -76h16q26 -1 28 -27v-28q0 -3 -1 -8t-8 -13t-19 -8z" />
<glyph unicode="u" horiz-adv-x="451" d="M407 471v-442q0 -13 -8 -21t-19 -8h-35q-11 0 -19 8t-8 21v9q-32 -45 -94 -45q-71 0 -115 47.5t-44 128.5v302q0 13 8 21t19 8h37q11 0 19 -8t8 -21v-309q0 -43 22.5 -64t54.5 -21q38 0 60.5 22t22.5 63v309q0 13 8 21t19 8h37q11 0 19 -8t8 -21z" />
<glyph unicode="v" horiz-adv-x="395" d="M155 29l-129 442q-4 14 3.5 21.5t21.5 7.5h44q24 0 32 -29l88 -359l86 359q8 29 32 29h44q14 0 21.5 -7.5t3.5 -21.5l-128 -440q-8 -31 -28 -31h-61q-22 0 -30 29z" />
<glyph unicode="w" horiz-adv-x="626" d="M312 500h51q24 0 32 -29l83 -358l63 358q8 29 32 29h44q14 0 21.5 -7.5t3.5 -21.5l-100 -442q-8 -29 -30 -29h-68q-21 0 -28 31l-79 327l-78 -327q-7 -31 -28 -31h-67q-22 0 -30 29l-101 442q-4 14 3.5 21.5t21.5 7.5h44q24 0 32 -29l63 -358l83 358q8 29 32 29z" />
<glyph unicode="x" horiz-adv-x="396" d="M295 29l-82 149l-79 -149q-14 -29 -38 -29h-39q-18 0 -25 7.5t0 21.5l132 230l-108 213q-7 14 0 21.5t25 7.5h27q23 0 38 -29l72 -142l74 141q16 29 44 29h26q18 0 25 -7.5t0 -21.5l-117 -224l124 -218q7 -14 0 -21.5t-25 -7.5h-30q-29 0 -44 29z" />
<glyph unicode="y" horiz-adv-x="396" d="M73 -198q-13 0 -20 7.5t-8 14.5l-1 8v35q0 3 1 8t8 13.5t20 8.5q61 0 71 38l16 65h-5q-12 0 -18 15l-109 456q-4 14 3.5 21.5t21.5 7.5h44q24 0 32 -29l69 -342h2l88 342q8 29 32 29h44q14 0 21.5 -7.5t3.5 -21.5l-156 -551q-19 -69 -56.5 -93.5t-103.5 -24.5z" />
<glyph unicode="z" horiz-adv-x="434" d="M83 500h285q12 0 20.5 -8t8.5 -20v-25q0 -8 -14 -31l-221 -332h217q13 0 21 -8t8 -19v-29q0 -12 -8 -20t-21 -8h-306q-13 0 -21 8t-8 20v25q0 8 14 31l220 332h-195q-13 0 -21 8t-8 19v29q0 12 8 20t21 8z" />
<glyph unicode="&#xa8;" horiz-adv-x="343" d="M74 690h46q11 0 19 -8t8 -21v-42q0 -13 -8 -21t-19 -8h-46q-11 0 -19 8t-8 21v42q0 13 8 21t19 8zM270 690h46q11 0 19 -8t8 -21v-42q0 -13 -8 -21t-19 -8h-46q-11 0 -19 8t-8 21v42q0 13 8 21t19 8z" />
<glyph unicode="&#xab;" horiz-adv-x="369" d="M134 237l66 -121q7 -14 0 -21.5t-25 -7.5h-22q-27 0 -42 27l-66 123l66 123q15 27 42 27h22q18 0 25 -7.5t0 -21.5zM277 237l66 -121q7 -14 0 -21.5t-25 -7.5h-22q-27 0 -42 27l-66 123l66 123q15 27 42 27h22q18 0 25 -7.5t0 -21.5z" />
<glyph unicode="&#xbb;" horiz-adv-x="370" d="M215 116l66 121l-66 121q-7 14 0 21.5t25 7.5h22q27 0 42 -27l66 -123l-66 -123q-15 -27 -42 -27h-22q-18 0 -25 7.5t0 21.5zM72 116l66 121l-66 121q-7 14 0 21.5t25 7.5h22q27 0 42 -27l66 -123l-66 -123q-15 -27 -42 -27h-22q-18 0 -25 7.5t0 21.5z" />
<glyph unicode="&#xc4;" horiz-adv-x="578" d="M295 595h-2l-64 -252h129zM252 700h83q23 0 30 -24l180 -644q5 -29 -25 -32h-46q-20 0 -28 24l-63 224h-178l-66 -224q-7 -24 -27 -24h-47q-4 0 -9 1t-12 9t-3 22l182 644q7 24 29 24zM180 870h46q11 0 19 -8t8 -21v-42q0 -13 -8 -21t-19 -8h-46q-11 0 -19 8t-8 21v42 q0 13 8 21t19 8zM376 870h46q11 0 19 -8t8 -21v-42q0 -13 -8 -21t-19 -8h-46q-11 0 -19 8t-8 21v42q0 13 8 21t19 8z" />
<glyph unicode="&#xcb;" horiz-adv-x="492" d="M60 700h353q26 -2 29 -28v-39v-3t-1.5 -7t-4.5 -8.5t-8.5 -6.5t-13.5 -3h-257v-205h190q26 -2 29 -28v-39v-3t-1.5 -7t-4.5 -8.5t-8.5 -6.5t-13.5 -3h-191v-210h256q26 -2 29 -28v-39v-3t-1.5 -7t-4.5 -8.5t-8.5 -6.5t-13.5 -3h-354v700zM91 870h46q11 0 19 -8t8 -21v-42 q0 -13 -8 -21t-19 -8h-46q-11 0 -19 8t-8 21v42q0 13 8 21t19 8zM287 870h46q11 0 19 -8t8 -21v-42q0 -13 -8 -21t-19 -8h-46q-11 0 -19 8t-8 21v42q0 13 8 21t19 8z" />
<glyph unicode="&#xd6;" horiz-adv-x="536" d="M269 707q106 0 156.5 -63t50.5 -165v-259q0 -102 -50.5 -164.5t-156.5 -62.5t-157 62.5t-51 164.5v259q0 102 51 165t157 63zM269 612q-111 0 -111 -133v-259q0 -132 111 -132q110 0 110 132v259q0 133 -110 133zM140 870h46q11 0 19 -8t8 -21v-42q0 -13 -8 -21t-19 -8 h-46q-11 0 -19 8t-8 21v42q0 13 8 21t19 8zM336 870h46q11 0 19 -8t8 -21v-42q0 -13 -8 -21t-19 -8h-46q-11 0 -19 8t-8 21v42q0 13 8 21t19 8z" />
<glyph unicode="&#xdc;" horiz-adv-x="520" d="M86 700h40q3 0 8 -1t13 -8t8 -20v-423q0 -90 26 -125t85 -35q54 0 81.5 36t27.5 124v423q2 26 28 29h40q3 0 8 -1t13 -8t8 -20v-418q0 -114 -50.5 -187t-155.5 -73q-103 0 -155.5 73t-52.5 187v418q2 26 28 29zM140 870h46q11 0 19 -8t8 -21v-42q0 -13 -8 -21t-19 -8h-46 q-11 0 -19 8t-8 21v42q0 13 8 21t19 8zM336 870h46q11 0 19 -8t8 -21v-42q0 -13 -8 -21t-19 -8h-46q-11 0 -19 8t-8 21v42q0 13 8 21t19 8z" />
<glyph unicode="&#xdf;" horiz-adv-x="461" d="M70 29v491q0 31 9 61.5t27.5 60t54.5 47.5t84 18q82 0 129 -51t47 -114q0 -49 -17.5 -83t-66.5 -54q54 -20 84.5 -70t30.5 -106q0 -97 -48 -163t-147 -66h-13q-13 0 -21 8t-8 19v29q0 12 8.5 20t20.5 8h14q106 0 106 145q0 52 -36 94.5t-90 42.5h-10q-13 1 -21 9t-8 19 v29q0 11 8.5 19.5t20.5 8.5h11q39 0 64.5 22t25.5 69q0 37 -23.5 58t-60.5 21q-40 0 -63 -25.5t-23 -75.5v-491q0 -13 -8 -21t-19 -8h-35q-11 0 -19 8t-8 21z" />
<glyph unicode="&#xe4;" d="M171 197q-47 -11 -47 -56q0 -25 18 -44.5t46 -19.5q37 0 62.5 29.5t25.5 65.5v50zM204 507q69 0 116 -46t47 -131v-301q0 -13 -8 -21t-19 -8h-35q-11 0 -19 8t-8 21v9q-13 -20 -41.5 -32.5t-58.5 -12.5q-60 0 -102.5 42t-42.5 102t27.5 93.5t96.5 50.5l119 29v42 q0 31 -20.5 51t-51.5 20q-33 0 -50 -14.5t-17 -37.5q0 -13 -7.5 -21t-19.5 -8h-37q-12 0 -19.5 8t-7.5 21q0 61 44.5 98.5t113.5 37.5zM130 690h46q11 0 19 -8t8 -21v-42q0 -13 -8 -21t-19 -8h-46q-11 0 -19 8t-8 21v42q0 13 8 21t19 8zM326 690h46q11 0 19 -8t8 -21v-42 q0 -13 -8 -21t-19 -8h-46q-11 0 -19 8t-8 21v42q0 13 8 21t19 8z" />
<glyph unicode="&#xeb;" d="M226 507q70 0 115.5 -39.5t45.5 -104.5v-67q0 -47 -48 -55l-197 -37v-49q1 -33 22 -55.5t55 -22.5q40 0 58.5 22t18.5 54q0 13 7 20.5t15 8.5l7 1h31q31 0 31 -31q0 -68 -46 -113.5t-122 -45.5q-74 0 -121 46t-47 116v177q0 77 46.5 126t128.5 49zM221 423q-41 0 -60 -23 t-19 -60v-50l154 30v43q0 29 -20.5 44.5t-54.5 15.5zM90 690h46q11 0 19 -8t8 -21v-42q0 -13 -8 -21t-19 -8h-46q-11 0 -19 8t-8 21v42q0 13 8 21t19 8zM286 690h46q11 0 19 -8t8 -21v-42q0 -13 -8 -21t-19 -8h-46q-11 0 -19 8t-8 21v42q0 13 8 21t19 8z" />
<glyph unicode="&#xf6;" horiz-adv-x="427" d="M221 423q77 0 77 -101v-150q0 -95 -78 -95q-76 0 -76 95v150q0 101 77 101zM220 -7h2q76 0 121.5 47.5t45.5 131.5v150q0 95 -44.5 140t-123.5 45t-123.5 -45t-44.5 -140v-150q0 -84 45.5 -131.5t121.5 -47.5zM128 690h46q11 0 19 -8t8 -21v-42q0 -13 -8 -21t-19 -8h-46 q-11 0 -19 8t-8 21v42q0 13 8 21t19 8zM324 690h46q11 0 19 -8t8 -21v-42q0 -13 -8 -21t-19 -8h-46q-11 0 -19 8t-8 21v42q0 13 8 21t19 8z" />
<glyph unicode="&#xfc;" horiz-adv-x="436" d="M398 471v-442q0 -13 -8 -21t-19 -8h-35q-11 0 -19 8t-8 21v9q-15 -21 -41.5 -33t-52.5 -12q-71 0 -115 47.5t-44 128.5v302q0 13 8 21t19 8h37q11 0 19 -8t8 -21v-309q0 -43 22.5 -64t54.5 -21q38 0 60.5 22t22.5 63v309q0 13 8 21t19 8h37q11 0 19 -8t8 -21zM101 690h46 q11 0 19 -8t8 -21v-42q0 -13 -8 -21t-19 -8h-46q-11 0 -19 8t-8 21v42q0 13 8 21t19 8zM297 690h46q11 0 19 -8t8 -21v-42q0 -13 -8 -21t-19 -8h-46q-11 0 -19 8t-8 21v42q0 13 8 21t19 8z" />
<glyph unicode="&#x2013;" horiz-adv-x="408" d="M64 310h309q13 0 21 -8t8 -20v-29q0 -11 -8 -19t-21 -8h-309q-13 0 -21 8t-8 19v29q0 12 8.5 20t20.5 8z" />
<glyph unicode="&#x2014;" horiz-adv-x="546" d="M64 310h447q13 0 21 -8t8 -20v-29q0 -11 -8 -19t-21 -8h-447q-13 0 -21 8t-8 19v29q0 12 8.5 20t20.5 8z" />
<glyph unicode="&#x2018;" horiz-adv-x="172" d="M144 785v-10q0 -17 -21 -17q-22 0 -31 -19.5t-9 -59.5h16q11 0 19 -8t8 -21v-46q0 -13 -8 -21t-19 -8h-50q-11 0 -19 8t-8 21v65q0 60 23.5 96.5t68.5 36.5h9q21 0 21 -17z" />
<glyph unicode="&#x2019;" horiz-adv-x="180" d="M22 530v10q0 17 21 17q22 0 31 19.5t9 59.5h-16q-11 0 -19 8t-8 21v46q0 13 8 21t19 8h50q11 0 19 -8t8 -21v-65q0 -60 -23.5 -96.5t-68.5 -36.5h-9q-21 0 -21 17z" />
<glyph unicode="&#x201a;" horiz-adv-x="168" d="M19 -106v10q0 17 21 17q22 0 31 19.5t9 59.5h-16q-11 0 -19 8t-8 21v46q0 13 8 21t19 8h50q11 0 19 -8t8 -21v-65q0 -60 -23.5 -96.5t-68.5 -36.5h-9q-21 0 -21 17z" />
<glyph unicode="&#x201c;" horiz-adv-x="324" d="M172 785v-10q0 -17 -21 -17q-22 0 -31 -19.5t-9 -59.5h16q11 0 19 -8t8 -21v-46q0 -13 -8 -21t-19 -8h-50q-11 0 -19 8t-8 21v65q0 60 23.5 96.5t68.5 36.5h9q21 0 21 -17zM313 785v-10q0 -17 -21 -17q-22 0 -31 -19.5t-9 -59.5h16q11 0 19 -8t8 -21v-46q0 -13 -8 -21 t-19 -8h-50q-11 0 -19 8t-8 21v65q0 60 23.5 96.5t68.5 36.5h9q21 0 21 -17z" />
<glyph unicode="&#x201d;" horiz-adv-x="328" d="M167 530v10q0 17 21 17q22 0 31 19.5t9 59.5h-16q-11 0 -19 8t-8 21v46q0 13 8 21t19 8h50q11 0 19 -8t8 -21v-65q0 -60 -23.5 -96.5t-68.5 -36.5h-9q-21 0 -21 17zM26 530v10q0 17 21 17q22 0 31 19.5t9 59.5h-16q-11 0 -19 8t-8 21v46q0 13 8 21t19 8h50q11 0 19 -8 t8 -21v-65q0 -60 -23.5 -96.5t-68.5 -36.5h-9q-21 0 -21 17z" />
<glyph unicode="&#x201e;" horiz-adv-x="317" d="M163 -106v10q0 17 21 17q22 0 31 19.5t9 59.5h-16q-11 0 -19 8t-8 21v46q0 13 8 21t19 8h50q11 0 19 -8t8 -21v-65q0 -60 -23.5 -96.5t-68.5 -36.5h-9q-21 0 -21 17zM22 -106v10q0 17 21 17q22 0 31 19.5t9 59.5h-16q-11 0 -19 8t-8 21v46q0 13 8 21t19 8h50q11 0 19 -8 t8 -21v-65q0 -60 -23.5 -96.5t-68.5 -36.5h-9q-21 0 -21 17z" />
<glyph unicode="&#x2026;" horiz-adv-x="464" d="M72 104h50q11 0 19 -8t8 -21v-46q0 -13 -8 -21t-19 -8h-50q-11 0 -19 8t-8 21v46q0 13 8 21t19 8zM243 104h50q11 0 19 -8t8 -21v-46q0 -13 -8 -21t-19 -8h-50q-11 0 -19 8t-8 21v46q0 13 8 21t19 8zM414 104h50q11 0 19 -8t8 -21v-46q0 -13 -8 -21t-19 -8h-50 q-11 0 -19 8t-8 21v46q0 13 8 21t19 8z" />
<glyph unicode="&#x20ac;" horiz-adv-x="525" d="M242 707q89 0 136 -57t47 -152v-295q0 -93 -50 -151.5t-133 -58.5t-132.5 58.5t-49.5 151.5v295q0 95 46.5 152t135.5 57zM242 85q44 0 65 31t21 103v261q0 72 -21 102t-65 30t-64.5 -30t-20.5 -102v-261q0 -73 20.5 -103.5t64.5 -30.5z" />
<glyph unicode="&#x2212;" horiz-adv-x="472" d="M429 254h-335l-10 9v39q0 10 10 10h335l10 -9v-39q0 -10 -10 -10z" />
<glyph unicode="&#xe000;" horiz-adv-x="500" d="M0 500h500v-500h-500v500z" />
<glyph horiz-adv-x="0" />
</font>
</defs>
</svg>
